<svg width="100" height="100" viewBox="0 0 100 100" fill="none" xmlns="http://www.w3.org/2000/svg">
<rect width="100" height="100" rx="15" fill="white"/>
<path d="M4.5582 71.2C4.1582 71.2 3.9582 71 3.9582 70.6C3.9582 70.32 3.9782 69.96 4.0182 69.52C4.0982 69.08 4.2182 68.74 4.3782 68.5C5.6582 68.42 6.5582 68.1 7.0782 67.54C7.6382 66.98 7.9582 66.2 8.0382 65.2C8.1182 64.52 8.1582 63.44 8.1582 61.96C8.1982 60.44 8.2182 58.9 8.2182 57.34C8.2182 55.78 8.1982 54.26 8.1582 52.78C8.1582 51.3 8.1382 50.12 8.0982 49.24C8.0182 47.8 7.4182 47.02 6.2982 46.9L4.2582 46.72C3.8582 46.72 3.6582 46.46 3.6582 45.94C3.6582 45.38 3.8582 44.74 4.2582 44.02C4.9382 43.86 5.7782 43.72 6.7782 43.6C7.7782 43.44 8.7582 43.3 9.7182 43.18C10.6782 43.06 11.3982 43 11.8782 43C12.6782 43 13.2182 43.2 13.4982 43.6C13.8182 44 13.9782 44.7 13.9782 45.7C13.9782 45.98 13.9782 46.28 13.9782 46.6C15.2182 45.28 16.6382 44.26 18.2382 43.54C19.8782 42.78 21.5782 42.4 23.3382 42.4C25.0582 42.4 26.5782 42.78 27.8982 43.54C29.2182 44.3 30.1982 45.46 30.8382 47.02C32.1182 45.5 33.6582 44.36 35.4582 43.6C37.2982 42.8 39.1782 42.4 41.0982 42.4C43.4582 42.4 45.4182 43.16 46.9782 44.68C48.5382 46.2 49.2982 48.58 49.2582 51.82C49.2582 53.18 49.2382 54.48 49.1982 55.72C49.1982 56.96 49.1982 58.1 49.1982 59.14C49.1982 60.98 49.2182 62.54 49.2582 63.82C49.2982 65.06 49.3382 65.94 49.3782 66.46C49.4582 66.98 49.5782 67.34 49.7382 67.54C49.9382 67.74 50.1582 67.88 50.3982 67.96C50.6782 68 51.1182 68.06 51.7182 68.14C52.3582 68.18 52.9382 68.2 53.4582 68.2C53.4582 69.24 53.3782 70.04 53.2182 70.6C53.0982 71 52.8782 71.2 52.5582 71.2H39.9582C39.5582 71.2 39.3582 71 39.3582 70.6C39.3582 70.44 39.3782 70.16 39.4182 69.76C39.4582 69.32 39.5582 68.9 39.7182 68.5C40.9182 68.42 41.7982 68.1 42.3582 67.54C42.9582 66.98 43.3182 66.2 43.4382 65.2C43.5182 64.72 43.5582 63.96 43.5582 62.92C43.5982 61.84 43.6182 60.74 43.6182 59.62C43.6182 58.46 43.5982 57.34 43.5582 56.26C43.5582 55.18 43.5382 54.42 43.4982 53.98C43.3382 51.62 42.9182 49.88 42.2382 48.76C41.5582 47.64 40.2782 47.08 38.3982 47.08C37.1182 47.08 35.8782 47.3 34.6782 47.74C33.4782 48.14 32.3982 48.84 31.4382 49.84C31.4782 50.24 31.4982 50.66 31.4982 51.1C31.4982 52.46 31.4782 53.78 31.4382 55.06C31.4382 56.3 31.4382 57.5 31.4382 58.66C31.4382 60.58 31.4582 62.24 31.4982 63.64C31.5382 65 31.5782 65.94 31.6182 66.46C31.6982 66.98 31.8182 67.34 31.9782 67.54C32.1782 67.74 32.3982 67.88 32.6382 67.96C32.9182 68 33.3182 68.06 33.8382 68.14C34.3582 68.18 34.8782 68.2 35.3982 68.2C35.3982 69.24 35.3182 70.04 35.1582 70.6C35.0382 71 34.8182 71.2 34.4982 71.2H22.1982C21.7982 71.2 21.5982 71 21.5982 70.6C21.5982 70.44 21.6182 70.16 21.6582 69.76C21.6982 69.32 21.7982 68.9 21.9582 68.5C23.1582 68.42 24.0382 68.1 24.5982 67.54C25.1982 66.98 25.5582 66.2 25.6782 65.2C25.7582 64.72 25.7982 63.96 25.7982 62.92C25.8382 61.84 25.8582 60.74 25.8582 59.62C25.8582 58.46 25.8382 57.34 25.7982 56.26C25.7982 55.18 25.7782 54.42 25.7382 53.98C25.5782 51.62 25.1582 49.88 24.4782 48.76C23.7982 47.64 22.5182 47.08 20.6382 47.08C18.0782 47.08 15.8382 48.02 13.9182 49.9C13.9182 51.38 13.8982 52.98 13.8582 54.7C13.8582 56.42 13.8582 58.12 13.8582 59.8C13.8582 61 13.8582 62.16 13.8582 63.28C13.8982 64.4 13.9382 65.46 13.9782 66.46C14.0182 66.98 14.1382 67.36 14.3382 67.6C14.5382 67.8 14.7582 67.92 14.9982 67.96C15.7182 68.08 16.6382 68.14 17.7582 68.14C17.7582 68.54 17.7382 69 17.6982 69.52C17.6582 70.04 17.5982 70.4 17.5182 70.6C17.3982 71 17.1182 71.2 16.6782 71.2H4.5582ZM66.1323 72.1C64.7323 72.1 63.3323 71.94 61.9323 71.62C60.5323 71.26 59.2523 70.7 58.0923 69.94C57.3723 69.42 56.7123 68.82 56.1123 68.14C55.5523 67.42 55.2723 66.76 55.2723 66.16C55.2723 65.76 55.5523 65.3 56.1123 64.78C56.7123 64.22 57.3923 63.7 58.1523 63.22C58.9123 62.74 59.5523 62.42 60.0723 62.26C60.3523 63.66 60.8923 64.82 61.6923 65.74C62.5323 66.62 63.5123 67.28 64.6323 67.72C65.7523 68.16 66.8723 68.38 67.9923 68.38C69.0723 68.38 69.9523 68.12 70.6323 67.6C71.3523 67.08 71.7323 66.26 71.7723 65.14C71.8123 63.5 71.1923 62.26 69.9123 61.42C68.6723 60.54 67.2523 59.86 65.6523 59.38C63.0523 58.58 60.8723 57.54 59.1123 56.26C57.3923 54.94 56.5323 53.1 56.5323 50.74C56.5323 47.98 57.5923 45.9 59.7123 44.5C61.8723 43.1 64.5923 42.4 67.8723 42.4C70.1123 42.4 72.1323 42.84 73.9323 43.72C75.7323 44.56 76.8523 45.82 77.2923 47.5C77.2923 48.02 77.0123 48.54 76.4523 49.06C75.8923 49.54 75.2123 49.94 74.4123 50.26C73.6123 50.54 72.8523 50.66 72.1323 50.62C72.0523 48.9 71.4523 47.66 70.3323 46.9C69.2523 46.14 68.0323 45.76 66.6723 45.76C65.6723 45.76 64.7323 46.04 63.8523 46.6C63.0123 47.12 62.5923 47.94 62.5923 49.06C62.5923 50.02 62.8923 50.84 63.4923 51.52C64.1323 52.16 64.9123 52.7 65.8323 53.14C66.7923 53.58 67.7523 53.96 68.7123 54.28C70.1523 54.72 71.5723 55.26 72.9723 55.9C74.3723 56.54 75.5323 57.44 76.4523 58.6C77.3723 59.76 77.8123 61.34 77.7723 63.34C77.7723 65.34 77.1923 67 76.0323 68.32C74.9123 69.6 73.4523 70.56 71.6523 71.2C69.8923 71.8 68.0523 72.1 66.1323 72.1ZM88.9135 74.5C87.6735 74.5 86.6535 74.1 85.8535 73.3C85.0535 72.5 84.6535 71.48 84.6535 70.24C84.6535 69.08 85.0535 68.1 85.8535 67.3C86.6535 66.5 87.6735 66.1 88.9135 66.1C90.1135 66.1 91.0935 66.5 91.8535 67.3C92.6535 68.1 93.0535 69.08 93.0535 70.24C93.0535 71.48 92.6535 72.5 91.8535 73.3C91.0935 74.1 90.1135 74.5 88.9135 74.5Z" fill="black"/>
</svg>
